<?xml version="1.0" encoding="us-ascii" standalone="no"?><svg xmlns="http://www.w3.org/2000/svg" xmlns:xlink="http://www.w3.org/1999/xlink" contentStyleType="text/css" height="876px" preserveAspectRatio="none" style="width:4315px;height:876px;background:#FFFFFF;" version="1.1" viewBox="0 0 4315 876" width="4315px" zoomAndPan="magnify"><defs/><g><!--class Analysis--><g id="elem_Analysis"><rect codeLine="2" fill="#F1F1F1" height="129.4844" id="Analysis" rx="2.5" ry="2.5" style="stroke:#181818;stroke-width:0.5;" width="367" x="1816" y="221.5"/><ellipse cx="1966.25" cy="237.5" fill="#A9DCDF" rx="11" ry="11" style="stroke:#181818;stroke-width:1.0;"/><path d="M1968.3281,239.3125 L1968.7188,240.2969 L1968.3281,240.2969 C1967.875,240.2969 1967.7656,240.3125 1967.6094,240.4219 C1967.3594,240.5781 1967.2031,240.8594 1967.2031,241.1563 C1967.2031,241.4219 1967.3438,241.6719 1967.5625,241.8281 C1967.7031,241.9531 1967.9063,242 1968.3281,242 L1970.6875,242 C1971.0469,242 1971.2656,241.9688 1971.4063,241.875 C1971.6563,241.7344 1971.8125,241.4375 1971.8125,241.1563 C1971.8125,240.875 1971.6719,240.625 1971.4531,240.4688 C1971.2813,240.3281 1971.125,240.2969 1970.6563,240.2969 L1967.2656,232.0938 L1963.5938,232.0938 C1963.1406,232.0938 1963.0156,232.1094 1962.8594,232.2031 C1962.6094,232.375 1962.4531,232.6563 1962.4531,232.9375 C1962.4531,233.2188 1962.5938,233.4688 1962.8125,233.6406 C1962.9844,233.75 1963.1563,233.7813 1963.5938,233.7813 L1964.6719,233.7813 L1962.0313,240.2969 C1961.6094,240.2969 1961.4531,240.3125 1961.2969,240.4219 C1961.0469,240.5781 1960.8906,240.8594 1960.8906,241.1563 C1960.8906,241.7188 1961.2656,242 1962.0156,242 L1964.2813,242 C1964.6406,242 1964.8594,241.9688 1964.9844,241.875 C1965.25,241.7344 1965.3906,241.4375 1965.3906,241.1563 C1965.3906,240.875 1965.2656,240.625 1965.0469,240.4531 C1964.875,240.3281 1964.7344,240.2969 1964.2813,240.2969 L1963.8906,240.2969 L1964.2813,239.3125 L1968.3281,239.3125 Z M1967.625,237.6094 L1964.9531,237.6094 L1966.2969,234.3438 L1967.625,237.6094 Z " fill="#000000"/><text fill="#000000" font-family="sans-serif" font-size="14" font-style="italic" lengthAdjust="spacing" textLength="58" x="1986.75" y="242.3467">Analysis</text><line style="stroke:#181818;stroke-width:0.5;" x1="1817" x2="2182" y1="253.5" y2="253.5"/><line style="stroke:#181818;stroke-width:0.5;" x1="1817" x2="2182" y1="261.5" y2="261.5"/><ellipse cx="1827" cy="275.1484" fill="#84BE84" rx="3" ry="3" style="stroke:#038048;stroke-width:1.0;"/><text fill="#000000" font-family="sans-serif" font-size="14" lengthAdjust="spacing" textLength="341" x="1836" y="278.4951">perform_assimilation(background, observation)</text><ellipse cx="1827" cy="291.4453" fill="#84BE84" rx="3" ry="3" style="stroke:#038048;stroke-width:1.0;"/><text fill="#000000" font-family="sans-serif" font-size="14" lengthAdjust="spacing" textLength="142" x="1836" y="294.792">get_analysis_state()</text><ellipse cx="1827" cy="307.7422" fill="#84BE84" rx="3" ry="3" style="stroke:#038048;stroke-width:1.0;"/><text fill="#000000" font-family="sans-serif" font-size="14" lengthAdjust="spacing" textLength="113" x="1836" y="311.0889">get_ensemble()</text><ellipse cx="1827" cy="324.0391" fill="#84BE84" rx="3" ry="3" style="stroke:#038048;stroke-width:1.0;"/><text fill="#000000" font-family="sans-serif" font-size="14" lengthAdjust="spacing" textLength="162" x="1836" y="327.3857">get_error_covariance()</text><ellipse cx="1827" cy="340.3359" fill="#84BE84" rx="3" ry="3" style="stroke:#038048;stroke-width:1.0;"/><text fill="#000000" font-family="sans-serif" font-size="14" lengthAdjust="spacing" textLength="246" x="1836" y="343.6826">inflate_ensemble(inflation_factor)</text></g><!--class Background--><g id="elem_Background"><rect codeLine="10" fill="#F1F1F1" height="178.375" id="Background" rx="2.5" ry="2.5" style="stroke:#181818;stroke-width:0.5;" width="368" x="3340.5" y="197"/><ellipse cx="3477.75" cy="213" fill="#ADD1B2" rx="11" ry="11" style="stroke:#181818;stroke-width:1.0;"/><path d="M3480.0938,208.6719 C3479.1563,208.2344 3478.5625,208.0938 3477.6875,208.0938 C3475.0625,208.0938 3473.0625,210.1719 3473.0625,212.8906 L3473.0625,214.0156 C3473.0625,216.5938 3475.1719,218.4844 3478.0625,218.4844 C3479.2813,218.4844 3480.4375,218.1875 3481.1875,217.6406 C3481.7656,217.2344 3482.0938,216.7813 3482.0938,216.3906 C3482.0938,215.9375 3481.7031,215.5469 3481.2344,215.5469 C3481.0156,215.5469 3480.8125,215.625 3480.625,215.8125 C3480.1719,216.2969 3480.1719,216.2969 3479.9844,216.3906 C3479.5625,216.6563 3478.875,216.7813 3478.1094,216.7813 C3476.0625,216.7813 3474.7656,215.6875 3474.7656,213.9844 L3474.7656,212.8906 C3474.7656,211.1094 3476.0156,209.7969 3477.75,209.7969 C3478.3281,209.7969 3478.9375,209.9531 3479.4063,210.2031 C3479.8906,210.4844 3480.0625,210.7031 3480.1563,211.1094 C3480.2188,211.5156 3480.25,211.6406 3480.3906,211.7656 C3480.5313,211.9063 3480.7656,212.0156 3480.9844,212.0156 C3481.25,212.0156 3481.5156,211.875 3481.6875,211.6563 C3481.7969,211.5 3481.8281,211.3125 3481.8281,210.8906 L3481.8281,209.4688 C3481.8281,209.0313 3481.8125,208.9063 3481.7188,208.75 C3481.5625,208.4844 3481.2813,208.3438 3480.9844,208.3438 C3480.6875,208.3438 3480.4844,208.4375 3480.2656,208.75 L3480.0938,208.6719 Z " fill="#000000"/><text fill="#000000" font-family="sans-serif" font-size="14" lengthAdjust="spacing" textLength="85" x="3498.25" y="217.8467">Background</text><line style="stroke:#181818;stroke-width:0.5;" x1="3341.5" x2="3707.5" y1="229" y2="229"/><line style="stroke:#181818;stroke-width:0.5;" x1="3341.5" x2="3707.5" y1="237" y2="237"/><ellipse cx="3351.5" cy="250.6484" fill="#84BE84" rx="3" ry="3" style="stroke:#038048;stroke-width:1.0;"/><text fill="#000000" font-family="sans-serif" font-size="14" lengthAdjust="spacing" textLength="221" x="3360.5" y="253.9951">__init__(model, ensemble_size)</text><ellipse cx="3351.5" cy="266.9453" fill="#84BE84" rx="3" ry="3" style="stroke:#038048;stroke-width:1.0;"/><text fill="#000000" font-family="sans-serif" font-size="14" lengthAdjust="spacing" textLength="342" x="3360.5" y="270.292">get_initial_ensemble(initial_perturbation, time)</text><ellipse cx="3351.5" cy="283.2422" fill="#84BE84" rx="3" ry="3" style="stroke:#038048;stroke-width:1.0;"/><text fill="#000000" font-family="sans-serif" font-size="14" lengthAdjust="spacing" textLength="172" x="3360.5" y="286.5889">forecast_step(Xb, time)</text><ellipse cx="3351.5" cy="299.5391" fill="#84BE84" rx="3" ry="3" style="stroke:#038048;stroke-width:1.0;"/><text fill="#000000" font-family="sans-serif" font-size="14" lengthAdjust="spacing" textLength="148" x="3360.5" y="302.8857">get_ensemble_size()</text><ellipse cx="3351.5" cy="315.8359" fill="#84BE84" rx="3" ry="3" style="stroke:#038048;stroke-width:1.0;"/><text fill="#000000" font-family="sans-serif" font-size="14" lengthAdjust="spacing" textLength="113" x="3360.5" y="319.1826">get_ensemble()</text><ellipse cx="3351.5" cy="332.1328" fill="#84BE84" rx="3" ry="3" style="stroke:#038048;stroke-width:1.0;"/><text fill="#000000" font-family="sans-serif" font-size="14" lengthAdjust="spacing" textLength="173" x="3360.5" y="335.4795">get_covariance_matrix()</text><ellipse cx="3351.5" cy="348.4297" fill="#84BE84" rx="3" ry="3" style="stroke:#038048;stroke-width:1.0;"/><text fill="#000000" font-family="sans-serif" font-size="14" lengthAdjust="spacing" textLength="172" x="3360.5" y="351.7764">get_background_state()</text><ellipse cx="3351.5" cy="364.7266" fill="#84BE84" rx="3" ry="3" style="stroke:#038048;stroke-width:1.0;"/><text fill="#000000" font-family="sans-serif" font-size="14" lengthAdjust="spacing" textLength="221" x="3360.5" y="368.0732">get_member_deviations(scale)</text></g><!--class AnalysisEnKF--><g id="elem_AnalysisEnKF"><rect codeLine="21" fill="#F1F1F1" height="145.7813" id="AnalysisEnKF" rx="2.5" ry="2.5" style="stroke:#181818;stroke-width:0.5;" width="367" x="7" y="460"/><ellipse cx="139.75" cy="476" fill="#ADD1B2" rx="11" ry="11" style="stroke:#181818;stroke-width:1.0;"/><path d="M142.0938,471.6719 C141.1563,471.2344 140.5625,471.0938 139.6875,471.0938 C137.0625,471.0938 135.0625,473.1719 135.0625,475.8906 L135.0625,477.0156 C135.0625,479.5938 137.1719,481.4844 140.0625,481.4844 C141.2813,481.4844 142.4375,481.1875 143.1875,480.6406 C143.7656,480.2344 144.0938,479.7813 144.0938,479.3906 C144.0938,478.9375 143.7031,478.5469 143.2344,478.5469 C143.0156,478.5469 142.8125,478.625 142.625,478.8125 C142.1719,479.2969 142.1719,479.2969 141.9844,479.3906 C141.5625,479.6563 140.875,479.7813 140.1094,479.7813 C138.0625,479.7813 136.7656,478.6875 136.7656,476.9844 L136.7656,475.8906 C136.7656,474.1094 138.0156,472.7969 139.75,472.7969 C140.3281,472.7969 140.9375,472.9531 141.4063,473.2031 C141.8906,473.4844 142.0625,473.7031 142.1563,474.1094 C142.2188,474.5156 142.25,474.6406 142.3906,474.7656 C142.5313,474.9063 142.7656,475.0156 142.9844,475.0156 C143.25,475.0156 143.5156,474.875 143.6875,474.6563 C143.7969,474.5 143.8281,474.3125 143.8281,473.8906 L143.8281,472.4688 C143.8281,472.0313 143.8125,471.9063 143.7188,471.75 C143.5625,471.4844 143.2813,471.3438 142.9844,471.3438 C142.6875,471.3438 142.4844,471.4375 142.2656,471.75 L142.0938,471.6719 Z " fill="#000000"/><text fill="#000000" font-family="sans-serif" font-size="14" lengthAdjust="spacing" textLength="93" x="160.25" y="480.8467">AnalysisEnKF</text><line style="stroke:#181818;stroke-width:0.5;" x1="8" x2="373" y1="492" y2="492"/><line style="stroke:#181818;stroke-width:0.5;" x1="8" x2="373" y1="500" y2="500"/><ellipse cx="18" cy="513.6484" fill="#84BE84" rx="3" ry="3" style="stroke:#038048;stroke-width:1.0;"/><text fill="#000000" font-family="sans-serif" font-size="14" lengthAdjust="spacing" textLength="62" x="27" y="516.9951">__init__()</text><ellipse cx="18" cy="529.9453" fill="#84BE84" rx="3" ry="3" style="stroke:#038048;stroke-width:1.0;"/><text fill="#000000" font-family="sans-serif" font-size="14" lengthAdjust="spacing" textLength="341" x="27" y="533.292">perform_assimilation(background, observation)</text><ellipse cx="18" cy="546.2422" fill="#84BE84" rx="3" ry="3" style="stroke:#038048;stroke-width:1.0;"/><text fill="#000000" font-family="sans-serif" font-size="14" lengthAdjust="spacing" textLength="142" x="27" y="549.5889">get_analysis_state()</text><ellipse cx="18" cy="562.5391" fill="#84BE84" rx="3" ry="3" style="stroke:#038048;stroke-width:1.0;"/><text fill="#000000" font-family="sans-serif" font-size="14" lengthAdjust="spacing" textLength="113" x="27" y="565.8857">get_ensemble()</text><ellipse cx="18" cy="578.8359" fill="#84BE84" rx="3" ry="3" style="stroke:#038048;stroke-width:1.0;"/><text fill="#000000" font-family="sans-serif" font-size="14" lengthAdjust="spacing" textLength="162" x="27" y="582.1826">get_error_covariance()</text><ellipse cx="18" cy="595.1328" fill="#84BE84" rx="3" ry="3" style="stroke:#038048;stroke-width:1.0;"/><text fill="#000000" font-family="sans-serif" font-size="14" lengthAdjust="spacing" textLength="246" x="27" y="598.4795">inflate_ensemble(inflation_factor)</text></g><!--class AnalysisEnKFBLoc--><g id="elem_AnalysisEnKFBLoc"><rect codeLine="30" fill="#F1F1F1" height="145.7813" id="AnalysisEnKFBLoc" rx="2.5" ry="2.5" style="stroke:#181818;stroke-width:0.5;" width="367" x="409" y="460"/><ellipse cx="524.25" cy="476" fill="#ADD1B2" rx="11" ry="11" style="stroke:#181818;stroke-width:1.0;"/><path d="M526.5938,471.6719 C525.6563,471.2344 525.0625,471.0938 524.1875,471.0938 C521.5625,471.0938 519.5625,473.1719 519.5625,475.8906 L519.5625,477.0156 C519.5625,479.5938 521.6719,481.4844 524.5625,481.4844 C525.7813,481.4844 526.9375,481.1875 527.6875,480.6406 C528.2656,480.2344 528.5938,479.7813 528.5938,479.3906 C528.5938,478.9375 528.2031,478.5469 527.7344,478.5469 C527.5156,478.5469 527.3125,478.625 527.125,478.8125 C526.6719,479.2969 526.6719,479.2969 526.4844,479.3906 C526.0625,479.6563 525.375,479.7813 524.6094,479.7813 C522.5625,479.7813 521.2656,478.6875 521.2656,476.9844 L521.2656,475.8906 C521.2656,474.1094 522.5156,472.7969 524.25,472.7969 C524.8281,472.7969 525.4375,472.9531 525.9063,473.2031 C526.3906,473.4844 526.5625,473.7031 526.6563,474.1094 C526.7188,474.5156 526.75,474.6406 526.8906,474.7656 C527.0313,474.9063 527.2656,475.0156 527.4844,475.0156 C527.75,475.0156 528.0156,474.875 528.1875,474.6563 C528.2969,474.5 528.3281,474.3125 528.3281,473.8906 L528.3281,472.4688 C528.3281,472.0313 528.3125,471.9063 528.2188,471.75 C528.0625,471.4844 527.7813,471.3438 527.4844,471.3438 C527.1875,471.3438 526.9844,471.4375 526.7656,471.75 L526.5938,471.6719 Z " fill="#000000"/><text fill="#000000" font-family="sans-serif" font-size="14" lengthAdjust="spacing" textLength="128" x="544.75" y="480.8467">AnalysisEnKFBLoc</text><line style="stroke:#181818;stroke-width:0.5;" x1="410" x2="775" y1="492" y2="492"/><line style="stroke:#181818;stroke-width:0.5;" x1="410" x2="775" y1="500" y2="500"/><ellipse cx="420" cy="513.6484" fill="#84BE84" rx="3" ry="3" style="stroke:#038048;stroke-width:1.0;"/><text fill="#000000" font-family="sans-serif" font-size="14" lengthAdjust="spacing" textLength="121" x="429" y="516.9951">__init__(model, r)</text><ellipse cx="420" cy="529.9453" fill="#84BE84" rx="3" ry="3" style="stroke:#038048;stroke-width:1.0;"/><text fill="#000000" font-family="sans-serif" font-size="14" lengthAdjust="spacing" textLength="341" x="429" y="533.292">perform_assimilation(background, observation)</text><ellipse cx="420" cy="546.2422" fill="#84BE84" rx="3" ry="3" style="stroke:#038048;stroke-width:1.0;"/><text fill="#000000" font-family="sans-serif" font-size="14" lengthAdjust="spacing" textLength="142" x="429" y="549.5889">get_analysis_state()</text><ellipse cx="420" cy="562.5391" fill="#84BE84" rx="3" ry="3" style="stroke:#038048;stroke-width:1.0;"/><text fill="#000000" font-family="sans-serif" font-size="14" lengthAdjust="spacing" textLength="113" x="429" y="565.8857">get_ensemble()</text><ellipse cx="420" cy="578.8359" fill="#84BE84" rx="3" ry="3" style="stroke:#038048;stroke-width:1.0;"/><text fill="#000000" font-family="sans-serif" font-size="14" lengthAdjust="spacing" textLength="162" x="429" y="582.1826">get_error_covariance()</text><ellipse cx="420" cy="595.1328" fill="#84BE84" rx="3" ry="3" style="stroke:#038048;stroke-width:1.0;"/><text fill="#000000" font-family="sans-serif" font-size="14" lengthAdjust="spacing" textLength="246" x="429" y="598.4795">inflate_ensemble(inflation_factor)</text></g><!--class AnalysisEnKFCholesky--><g id="elem_AnalysisEnKFCholesky"><rect codeLine="39" fill="#F1F1F1" height="145.7813" id="AnalysisEnKFCholesky" rx="2.5" ry="2.5" style="stroke:#181818;stroke-width:0.5;" width="367" x="811" y="460"/><ellipse cx="911.25" cy="476" fill="#ADD1B2" rx="11" ry="11" style="stroke:#181818;stroke-width:1.0;"/><path d="M913.5938,471.6719 C912.6563,471.2344 912.0625,471.0938 911.1875,471.0938 C908.5625,471.0938 906.5625,473.1719 906.5625,475.8906 L906.5625,477.0156 C906.5625,479.5938 908.6719,481.4844 911.5625,481.4844 C912.7813,481.4844 913.9375,481.1875 914.6875,480.6406 C915.2656,480.2344 915.5938,479.7813 915.5938,479.3906 C915.5938,478.9375 915.2031,478.5469 914.7344,478.5469 C914.5156,478.5469 914.3125,478.625 914.125,478.8125 C913.6719,479.2969 913.6719,479.2969 913.4844,479.3906 C913.0625,479.6563 912.375,479.7813 911.6094,479.7813 C909.5625,479.7813 908.2656,478.6875 908.2656,476.9844 L908.2656,475.8906 C908.2656,474.1094 909.5156,472.7969 911.25,472.7969 C911.8281,472.7969 912.4375,472.9531 912.9063,473.2031 C913.3906,473.4844 913.5625,473.7031 913.6563,474.1094 C913.7188,474.5156 913.75,474.6406 913.8906,474.7656 C914.0313,474.9063 914.2656,475.0156 914.4844,475.0156 C914.75,475.0156 915.0156,474.875 915.1875,474.6563 C915.2969,474.5 915.3281,474.3125 915.3281,473.8906 L915.3281,472.4688 C915.3281,472.0313 915.3125,471.9063 915.2188,471.75 C915.0625,471.4844 914.7813,471.3438 914.4844,471.3438 C914.1875,471.3438 913.9844,471.4375 913.7656,471.75 L913.5938,471.6719 Z " fill="#000000"/><text fill="#000000" font-family="sans-serif" font-size="14" lengthAdjust="spacing" textLength="158" x="931.75" y="480.8467">AnalysisEnKFCholesky</text><line style="stroke:#181818;stroke-width:0.5;" x1="812" x2="1177" y1="492" y2="492"/><line style="stroke:#181818;stroke-width:0.5;" x1="812" x2="1177" y1="500" y2="500"/><ellipse cx="822" cy="513.6484" fill="#84BE84" rx="3" ry="3" style="stroke:#038048;stroke-width:1.0;"/><text fill="#000000" font-family="sans-serif" font-size="14" lengthAdjust="spacing" textLength="62" x="831" y="516.9951">__init__()</text><ellipse cx="822" cy="529.9453" fill="#84BE84" rx="3" ry="3" style="stroke:#038048;stroke-width:1.0;"/><text fill="#000000" font-family="sans-serif" font-size="14" lengthAdjust="spacing" textLength="341" x="831" y="533.292">perform_assimilation(background, observation)</text><ellipse cx="822" cy="546.2422" fill="#84BE84" rx="3" ry="3" style="stroke:#038048;stroke-width:1.0;"/><text fill="#000000" font-family="sans-serif" font-size="14" lengthAdjust="spacing" textLength="142" x="831" y="549.5889">get_analysis_state()</text><ellipse cx="822" cy="562.5391" fill="#84BE84" rx="3" ry="3" style="stroke:#038048;stroke-width:1.0;"/><text fill="#000000" font-family="sans-serif" font-size="14" lengthAdjust="spacing" textLength="113" x="831" y="565.8857">get_ensemble()</text><ellipse cx="822" cy="578.8359" fill="#84BE84" rx="3" ry="3" style="stroke:#038048;stroke-width:1.0;"/><text fill="#000000" font-family="sans-serif" font-size="14" lengthAdjust="spacing" textLength="162" x="831" y="582.1826">get_error_covariance()</text><ellipse cx="822" cy="595.1328" fill="#84BE84" rx="3" ry="3" style="stroke:#038048;stroke-width:1.0;"/><text fill="#000000" font-family="sans-serif" font-size="14" lengthAdjust="spacing" textLength="246" x="831" y="598.4795">inflate_ensemble(inflation_factor)</text></g><!--class AnalysisEnKFModifiedCholesky--><g id="elem_AnalysisEnKFModifiedCholesky"><rect codeLine="48" fill="#F1F1F1" height="162.0781" id="AnalysisEnKFModifiedCholesky" rx="2.5" ry="2.5" style="stroke:#181818;stroke-width:0.5;" width="367" x="1213" y="452"/><ellipse cx="1282.25" cy="468" fill="#ADD1B2" rx="11" ry="11" style="stroke:#181818;stroke-width:1.0;"/><path d="M1284.5938,463.6719 C1283.6563,463.2344 1283.0625,463.0938 1282.1875,463.0938 C1279.5625,463.0938 1277.5625,465.1719 1277.5625,467.8906 L1277.5625,469.0156 C1277.5625,471.5938 1279.6719,473.4844 1282.5625,473.4844 C1283.7813,473.4844 1284.9375,473.1875 1285.6875,472.6406 C1286.2656,472.2344 1286.5938,471.7813 1286.5938,471.3906 C1286.5938,470.9375 1286.2031,470.5469 1285.7344,470.5469 C1285.5156,470.5469 1285.3125,470.625 1285.125,470.8125 C1284.6719,471.2969 1284.6719,471.2969 1284.4844,471.3906 C1284.0625,471.6563 1283.375,471.7813 1282.6094,471.7813 C1280.5625,471.7813 1279.2656,470.6875 1279.2656,468.9844 L1279.2656,467.8906 C1279.2656,466.1094 1280.5156,464.7969 1282.25,464.7969 C1282.8281,464.7969 1283.4375,464.9531 1283.9063,465.2031 C1284.3906,465.4844 1284.5625,465.7031 1284.6563,466.1094 C1284.7188,466.5156 1284.75,466.6406 1284.8906,466.7656 C1285.0313,466.9063 1285.2656,467.0156 1285.4844,467.0156 C1285.75,467.0156 1286.0156,466.875 1286.1875,466.6563 C1286.2969,466.5 1286.3281,466.3125 1286.3281,465.8906 L1286.3281,464.4688 C1286.3281,464.0313 1286.3125,463.9063 1286.2188,463.75 C1286.0625,463.4844 1285.7813,463.3438 1285.4844,463.3438 C1285.1875,463.3438 1284.9844,463.4375 1284.7656,463.75 L1284.5938,463.6719 Z " fill="#000000"/><text fill="#000000" font-family="sans-serif" font-size="14" lengthAdjust="spacing" textLength="220" x="1302.75" y="472.8467">AnalysisEnKFModifiedCholesky</text><line style="stroke:#181818;stroke-width:0.5;" x1="1214" x2="1579" y1="484" y2="484"/><line style="stroke:#181818;stroke-width:0.5;" x1="1214" x2="1579" y1="492" y2="492"/><ellipse cx="1224" cy="505.6484" fill="#84BE84" rx="3" ry="3" style="stroke:#038048;stroke-width:1.0;"/><text fill="#000000" font-family="sans-serif" font-size="14" lengthAdjust="spacing" textLength="121" x="1233" y="508.9951">__init__(model, r)</text><ellipse cx="1224" cy="521.9453" fill="#84BE84" rx="3" ry="3" style="stroke:#038048;stroke-width:1.0;"/><text fill="#000000" font-family="sans-serif" font-size="14" lengthAdjust="spacing" textLength="341" x="1233" y="525.292">get_precision_matrix(DX, regularization_factor)</text><ellipse cx="1224" cy="538.2422" fill="#84BE84" rx="3" ry="3" style="stroke:#038048;stroke-width:1.0;"/><text fill="#000000" font-family="sans-serif" font-size="14" lengthAdjust="spacing" textLength="341" x="1233" y="541.5889">perform_assimilation(background, observation)</text><ellipse cx="1224" cy="554.5391" fill="#84BE84" rx="3" ry="3" style="stroke:#038048;stroke-width:1.0;"/><text fill="#000000" font-family="sans-serif" font-size="14" lengthAdjust="spacing" textLength="142" x="1233" y="557.8857">get_analysis_state()</text><ellipse cx="1224" cy="570.8359" fill="#84BE84" rx="3" ry="3" style="stroke:#038048;stroke-width:1.0;"/><text fill="#000000" font-family="sans-serif" font-size="14" lengthAdjust="spacing" textLength="113" x="1233" y="574.1826">get_ensemble()</text><ellipse cx="1224" cy="587.1328" fill="#84BE84" rx="3" ry="3" style="stroke:#038048;stroke-width:1.0;"/><text fill="#000000" font-family="sans-serif" font-size="14" lengthAdjust="spacing" textLength="162" x="1233" y="590.4795">get_error_covariance()</text><ellipse cx="1224" cy="603.4297" fill="#84BE84" rx="3" ry="3" style="stroke:#038048;stroke-width:1.0;"/><text fill="#000000" font-family="sans-serif" font-size="14" lengthAdjust="spacing" textLength="246" x="1233" y="606.7764">inflate_ensemble(inflation_factor)</text></g><!--class AnalysisEnKFNaive--><g id="elem_AnalysisEnKFNaive"><rect codeLine="58" fill="#F1F1F1" height="145.7813" id="AnalysisEnKFNaive" rx="2.5" ry="2.5" style="stroke:#181818;stroke-width:0.5;" width="367" x="1615" y="460"/><ellipse cx="1728.25" cy="476" fill="#ADD1B2" rx="11" ry="11" style="stroke:#181818;stroke-width:1.0;"/><path d="M1730.5938,471.6719 C1729.6563,471.2344 1729.0625,471.0938 1728.1875,471.0938 C1725.5625,471.0938 1723.5625,473.1719 1723.5625,475.8906 L1723.5625,477.0156 C1723.5625,479.5938 1725.6719,481.4844 1728.5625,481.4844 C1729.7813,481.4844 1730.9375,481.1875 1731.6875,480.6406 C1732.2656,480.2344 1732.5938,479.7813 1732.5938,479.3906 C1732.5938,478.9375 1732.2031,478.5469 1731.7344,478.5469 C1731.5156,478.5469 1731.3125,478.625 1731.125,478.8125 C1730.6719,479.2969 1730.6719,479.2969 1730.4844,479.3906 C1730.0625,479.6563 1729.375,479.7813 1728.6094,479.7813 C1726.5625,479.7813 1725.2656,478.6875 1725.2656,476.9844 L1725.2656,475.8906 C1725.2656,474.1094 1726.5156,472.7969 1728.25,472.7969 C1728.8281,472.7969 1729.4375,472.9531 1729.9063,473.2031 C1730.3906,473.4844 1730.5625,473.7031 1730.6563,474.1094 C1730.7188,474.5156 1730.75,474.6406 1730.8906,474.7656 C1731.0313,474.9063 1731.2656,475.0156 1731.4844,475.0156 C1731.75,475.0156 1732.0156,474.875 1732.1875,474.6563 C1732.2969,474.5 1732.3281,474.3125 1732.3281,473.8906 L1732.3281,472.4688 C1732.3281,472.0313 1732.3125,471.9063 1732.2188,471.75 C1732.0625,471.4844 1731.7813,471.3438 1731.4844,471.3438 C1731.1875,471.3438 1730.9844,471.4375 1730.7656,471.75 L1730.5938,471.6719 Z " fill="#000000"/><text fill="#000000" font-family="sans-serif" font-size="14" lengthAdjust="spacing" textLength="132" x="1748.75" y="480.8467">AnalysisEnKFNaive</text><line style="stroke:#181818;stroke-width:0.5;" x1="1616" x2="1981" y1="492" y2="492"/><line style="stroke:#181818;stroke-width:0.5;" x1="1616" x2="1981" y1="500" y2="500"/><ellipse cx="1626" cy="513.6484" fill="#84BE84" rx="3" ry="3" style="stroke:#038048;stroke-width:1.0;"/><text fill="#000000" font-family="sans-serif" font-size="14" lengthAdjust="spacing" textLength="62" x="1635" y="516.9951">__init__()</text><ellipse cx="1626" cy="529.9453" fill="#84BE84" rx="3" ry="3" style="stroke:#038048;stroke-width:1.0;"/><text fill="#000000" font-family="sans-serif" font-size="14" lengthAdjust="spacing" textLength="341" x="1635" y="533.292">perform_assimilation(background, observation)</text><ellipse cx="1626" cy="546.2422" fill="#84BE84" rx="3" ry="3" style="stroke:#038048;stroke-width:1.0;"/><text fill="#000000" font-family="sans-serif" font-size="14" lengthAdjust="spacing" textLength="142" x="1635" y="549.5889">get_analysis_state()</text><ellipse cx="1626" cy="562.5391" fill="#84BE84" rx="3" ry="3" style="stroke:#038048;stroke-width:1.0;"/><text fill="#000000" font-family="sans-serif" font-size="14" lengthAdjust="spacing" textLength="246" x="1635" y="565.8857">inflate_ensemble(inflation_factor)</text><ellipse cx="1626" cy="578.8359" fill="#84BE84" rx="3" ry="3" style="stroke:#038048;stroke-width:1.0;"/><text fill="#000000" font-family="sans-serif" font-size="14" lengthAdjust="spacing" textLength="113" x="1635" y="582.1826">get_ensemble()</text><ellipse cx="1626" cy="595.1328" fill="#84BE84" rx="3" ry="3" style="stroke:#038048;stroke-width:1.0;"/><text fill="#000000" font-family="sans-serif" font-size="14" lengthAdjust="spacing" textLength="162" x="1635" y="598.4795">get_error_covariance()</text></g><!--class AnalysisEnSRF--><g id="elem_AnalysisEnSRF"><rect codeLine="67" fill="#F1F1F1" height="145.7813" id="AnalysisEnSRF" rx="2.5" ry="2.5" style="stroke:#181818;stroke-width:0.5;" width="367" x="2017" y="460"/><ellipse cx="2145.25" cy="476" fill="#ADD1B2" rx="11" ry="11" style="stroke:#181818;stroke-width:1.0;"/><path d="M2147.5938,471.6719 C2146.6563,471.2344 2146.0625,471.0938 2145.1875,471.0938 C2142.5625,471.0938 2140.5625,473.1719 2140.5625,475.8906 L2140.5625,477.0156 C2140.5625,479.5938 2142.6719,481.4844 2145.5625,481.4844 C2146.7813,481.4844 2147.9375,481.1875 2148.6875,480.6406 C2149.2656,480.2344 2149.5938,479.7813 2149.5938,479.3906 C2149.5938,478.9375 2149.2031,478.5469 2148.7344,478.5469 C2148.5156,478.5469 2148.3125,478.625 2148.125,478.8125 C2147.6719,479.2969 2147.6719,479.2969 2147.4844,479.3906 C2147.0625,479.6563 2146.375,479.7813 2145.6094,479.7813 C2143.5625,479.7813 2142.2656,478.6875 2142.2656,476.9844 L2142.2656,475.8906 C2142.2656,474.1094 2143.5156,472.7969 2145.25,472.7969 C2145.8281,472.7969 2146.4375,472.9531 2146.9063,473.2031 C2147.3906,473.4844 2147.5625,473.7031 2147.6563,474.1094 C2147.7188,474.5156 2147.75,474.6406 2147.8906,474.7656 C2148.0313,474.9063 2148.2656,475.0156 2148.4844,475.0156 C2148.75,475.0156 2149.0156,474.875 2149.1875,474.6563 C2149.2969,474.5 2149.3281,474.3125 2149.3281,473.8906 L2149.3281,472.4688 C2149.3281,472.0313 2149.3125,471.9063 2149.2188,471.75 C2149.0625,471.4844 2148.7813,471.3438 2148.4844,471.3438 C2148.1875,471.3438 2147.9844,471.4375 2147.7656,471.75 L2147.5938,471.6719 Z " fill="#000000"/><text fill="#000000" font-family="sans-serif" font-size="14" lengthAdjust="spacing" textLength="102" x="2165.75" y="480.8467">AnalysisEnSRF</text><line style="stroke:#181818;stroke-width:0.5;" x1="2018" x2="2383" y1="492" y2="492"/><line style="stroke:#181818;stroke-width:0.5;" x1="2018" x2="2383" y1="500" y2="500"/><ellipse cx="2028" cy="513.6484" fill="#84BE84" rx="3" ry="3" style="stroke:#038048;stroke-width:1.0;"/><text fill="#000000" font-family="sans-serif" font-size="14" lengthAdjust="spacing" textLength="62" x="2037" y="516.9951">__init__()</text><ellipse cx="2028" cy="529.9453" fill="#84BE84" rx="3" ry="3" style="stroke:#038048;stroke-width:1.0;"/><text fill="#000000" font-family="sans-serif" font-size="14" lengthAdjust="spacing" textLength="341" x="2037" y="533.292">perform_assimilation(background, observation)</text><ellipse cx="2028" cy="546.2422" fill="#84BE84" rx="3" ry="3" style="stroke:#038048;stroke-width:1.0;"/><text fill="#000000" font-family="sans-serif" font-size="14" lengthAdjust="spacing" textLength="142" x="2037" y="549.5889">get_analysis_state()</text><ellipse cx="2028" cy="562.5391" fill="#84BE84" rx="3" ry="3" style="stroke:#038048;stroke-width:1.0;"/><text fill="#000000" font-family="sans-serif" font-size="14" lengthAdjust="spacing" textLength="113" x="2037" y="565.8857">get_ensemble()</text><ellipse cx="2028" cy="578.8359" fill="#84BE84" rx="3" ry="3" style="stroke:#038048;stroke-width:1.0;"/><text fill="#000000" font-family="sans-serif" font-size="14" lengthAdjust="spacing" textLength="162" x="2037" y="582.1826">get_error_covariance()</text><ellipse cx="2028" cy="595.1328" fill="#84BE84" rx="3" ry="3" style="stroke:#038048;stroke-width:1.0;"/><text fill="#000000" font-family="sans-serif" font-size="14" lengthAdjust="spacing" textLength="246" x="2037" y="598.4795">inflate_ensemble(inflation_factor)</text></g><!--class AnalysisETKF--><g id="elem_AnalysisETKF"><rect codeLine="76" fill="#F1F1F1" height="145.7813" id="AnalysisETKF" rx="2.5" ry="2.5" style="stroke:#181818;stroke-width:0.5;" width="367" x="2419" y="460"/><ellipse cx="2551.75" cy="476" fill="#ADD1B2" rx="11" ry="11" style="stroke:#181818;stroke-width:1.0;"/><path d="M2554.0938,471.6719 C2553.1563,471.2344 2552.5625,471.0938 2551.6875,471.0938 C2549.0625,471.0938 2547.0625,473.1719 2547.0625,475.8906 L2547.0625,477.0156 C2547.0625,479.5938 2549.1719,481.4844 2552.0625,481.4844 C2553.2813,481.4844 2554.4375,481.1875 2555.1875,480.6406 C2555.7656,480.2344 2556.0938,479.7813 2556.0938,479.3906 C2556.0938,478.9375 2555.7031,478.5469 2555.2344,478.5469 C2555.0156,478.5469 2554.8125,478.625 2554.625,478.8125 C2554.1719,479.2969 2554.1719,479.2969 2553.9844,479.3906 C2553.5625,479.6563 2552.875,479.7813 2552.1094,479.7813 C2550.0625,479.7813 2548.7656,478.6875 2548.7656,476.9844 L2548.7656,475.8906 C2548.7656,474.1094 2550.0156,472.7969 2551.75,472.7969 C2552.3281,472.7969 2552.9375,472.9531 2553.4063,473.2031 C2553.8906,473.4844 2554.0625,473.7031 2554.1563,474.1094 C2554.2188,474.5156 2554.25,474.6406 2554.3906,474.7656 C2554.5313,474.9063 2554.7656,475.0156 2554.9844,475.0156 C2555.25,475.0156 2555.5156,474.875 2555.6875,474.6563 C2555.7969,474.5 2555.8281,474.3125 2555.8281,473.8906 L2555.8281,472.4688 C2555.8281,472.0313 2555.8125,471.9063 2555.7188,471.75 C2555.5625,471.4844 2555.2813,471.3438 2554.9844,471.3438 C2554.6875,471.3438 2554.4844,471.4375 2554.2656,471.75 L2554.0938,471.6719 Z " fill="#000000"/><text fill="#000000" font-family="sans-serif" font-size="14" lengthAdjust="spacing" textLength="93" x="2572.25" y="480.8467">AnalysisETKF</text><line style="stroke:#181818;stroke-width:0.5;" x1="2420" x2="2785" y1="492" y2="492"/><line style="stroke:#181818;stroke-width:0.5;" x1="2420" x2="2785" y1="500" y2="500"/><ellipse cx="2430" cy="513.6484" fill="#84BE84" rx="3" ry="3" style="stroke:#038048;stroke-width:1.0;"/><text fill="#000000" font-family="sans-serif" font-size="14" lengthAdjust="spacing" textLength="62" x="2439" y="516.9951">__init__()</text><ellipse cx="2430" cy="529.9453" fill="#84BE84" rx="3" ry="3" style="stroke:#038048;stroke-width:1.0;"/><text fill="#000000" font-family="sans-serif" font-size="14" lengthAdjust="spacing" textLength="341" x="2439" y="533.292">perform_assimilation(background, observation)</text><ellipse cx="2430" cy="546.2422" fill="#84BE84" rx="3" ry="3" style="stroke:#038048;stroke-width:1.0;"/><text fill="#000000" font-family="sans-serif" font-size="14" lengthAdjust="spacing" textLength="142" x="2439" y="549.5889">get_analysis_state()</text><ellipse cx="2430" cy="562.5391" fill="#84BE84" rx="3" ry="3" style="stroke:#038048;stroke-width:1.0;"/><text fill="#000000" font-family="sans-serif" font-size="14" lengthAdjust="spacing" textLength="113" x="2439" y="565.8857">get_ensemble()</text><ellipse cx="2430" cy="578.8359" fill="#84BE84" rx="3" ry="3" style="stroke:#038048;stroke-width:1.0;"/><text fill="#000000" font-family="sans-serif" font-size="14" lengthAdjust="spacing" textLength="162" x="2439" y="582.1826">get_error_covariance()</text><ellipse cx="2430" cy="595.1328" fill="#84BE84" rx="3" ry="3" style="stroke:#038048;stroke-width:1.0;"/><text fill="#000000" font-family="sans-serif" font-size="14" lengthAdjust="spacing" textLength="246" x="2439" y="598.4795">inflate_ensemble(inflation_factor)</text></g><!--class AnalysisLEnKF--><g id="elem_AnalysisLEnKF"><rect codeLine="85" fill="#F1F1F1" height="145.7813" id="AnalysisLEnKF" rx="2.5" ry="2.5" style="stroke:#181818;stroke-width:0.5;" width="367" x="2821" y="460"/><ellipse cx="2949.75" cy="476" fill="#ADD1B2" rx="11" ry="11" style="stroke:#181818;stroke-width:1.0;"/><path d="M2952.0938,471.6719 C2951.1563,471.2344 2950.5625,471.0938 2949.6875,471.0938 C2947.0625,471.0938 2945.0625,473.1719 2945.0625,475.8906 L2945.0625,477.0156 C2945.0625,479.5938 2947.1719,481.4844 2950.0625,481.4844 C2951.2813,481.4844 2952.4375,481.1875 2953.1875,480.6406 C2953.7656,480.2344 2954.0938,479.7813 2954.0938,479.3906 C2954.0938,478.9375 2953.7031,478.5469 2953.2344,478.5469 C2953.0156,478.5469 2952.8125,478.625 2952.625,478.8125 C2952.1719,479.2969 2952.1719,479.2969 2951.9844,479.3906 C2951.5625,479.6563 2950.875,479.7813 2950.1094,479.7813 C2948.0625,479.7813 2946.7656,478.6875 2946.7656,476.9844 L2946.7656,475.8906 C2946.7656,474.1094 2948.0156,472.7969 2949.75,472.7969 C2950.3281,472.7969 2950.9375,472.9531 2951.4063,473.2031 C2951.8906,473.4844 2952.0625,473.7031 2952.1563,474.1094 C2952.2188,474.5156 2952.25,474.6406 2952.3906,474.7656 C2952.5313,474.9063 2952.7656,475.0156 2952.9844,475.0156 C2953.25,475.0156 2953.5156,474.875 2953.6875,474.6563 C2953.7969,474.5 2953.8281,474.3125 2953.8281,473.8906 L2953.8281,472.4688 C2953.8281,472.0313 2953.8125,471.9063 2953.7188,471.75 C2953.5625,471.4844 2953.2813,471.3438 2952.9844,471.3438 C2952.6875,471.3438 2952.4844,471.4375 2952.2656,471.75 L2952.0938,471.6719 Z " fill="#000000"/><text fill="#000000" font-family="sans-serif" font-size="14" lengthAdjust="spacing" textLength="101" x="2970.25" y="480.8467">AnalysisLEnKF</text><line style="stroke:#181818;stroke-width:0.5;" x1="2822" x2="3187" y1="492" y2="492"/><line style="stroke:#181818;stroke-width:0.5;" x1="2822" x2="3187" y1="500" y2="500"/><ellipse cx="2832" cy="513.6484" fill="#84BE84" rx="3" ry="3" style="stroke:#038048;stroke-width:1.0;"/><text fill="#000000" font-family="sans-serif" font-size="14" lengthAdjust="spacing" textLength="121" x="2841" y="516.9951">__init__(model, r)</text><ellipse cx="2832" cy="529.9453" fill="#84BE84" rx="3" ry="3" style="stroke:#038048;stroke-width:1.0;"/><text fill="#000000" font-family="sans-serif" font-size="14" lengthAdjust="spacing" textLength="341" x="2841" y="533.292">perform_assimilation(background, observation)</text><ellipse cx="2832" cy="546.2422" fill="#84BE84" rx="3" ry="3" style="stroke:#038048;stroke-width:1.0;"/><text fill="#000000" font-family="sans-serif" font-size="14" lengthAdjust="spacing" textLength="142" x="2841" y="549.5889">get_analysis_state()</text><ellipse cx="2832" cy="562.5391" fill="#84BE84" rx="3" ry="3" style="stroke:#038048;stroke-width:1.0;"/><text fill="#000000" font-family="sans-serif" font-size="14" lengthAdjust="spacing" textLength="113" x="2841" y="565.8857">get_ensemble()</text><ellipse cx="2832" cy="578.8359" fill="#84BE84" rx="3" ry="3" style="stroke:#038048;stroke-width:1.0;"/><text fill="#000000" font-family="sans-serif" font-size="14" lengthAdjust="spacing" textLength="162" x="2841" y="582.1826">get_error_covariance()</text><ellipse cx="2832" cy="595.1328" fill="#84BE84" rx="3" ry="3" style="stroke:#038048;stroke-width:1.0;"/><text fill="#000000" font-family="sans-serif" font-size="14" lengthAdjust="spacing" textLength="246" x="2841" y="598.4795">inflate_ensemble(inflation_factor)</text></g><!--class AnalysisLETKF--><g id="elem_AnalysisLETKF"><rect codeLine="94" fill="#F1F1F1" height="145.7813" id="AnalysisLETKF" rx="2.5" ry="2.5" style="stroke:#181818;stroke-width:0.5;" width="367" x="3223" y="460"/><ellipse cx="3351.75" cy="476" fill="#ADD1B2" rx="11" ry="11" style="stroke:#181818;stroke-width:1.0;"/><path d="M3354.0938,471.6719 C3353.1563,471.2344 3352.5625,471.0938 3351.6875,471.0938 C3349.0625,471.0938 3347.0625,473.1719 3347.0625,475.8906 L3347.0625,477.0156 C3347.0625,479.5938 3349.1719,481.4844 3352.0625,481.4844 C3353.2813,481.4844 3354.4375,481.1875 3355.1875,480.6406 C3355.7656,480.2344 3356.0938,479.7813 3356.0938,479.3906 C3356.0938,478.9375 3355.7031,478.5469 3355.2344,478.5469 C3355.0156,478.5469 3354.8125,478.625 3354.625,478.8125 C3354.1719,479.2969 3354.1719,479.2969 3353.9844,479.3906 C3353.5625,479.6563 3352.875,479.7813 3352.1094,479.7813 C3350.0625,479.7813 3348.7656,478.6875 3348.7656,476.9844 L3348.7656,475.8906 C3348.7656,474.1094 3350.0156,472.7969 3351.75,472.7969 C3352.3281,472.7969 3352.9375,472.9531 3353.4063,473.2031 C3353.8906,473.4844 3354.0625,473.7031 3354.1563,474.1094 C3354.2188,474.5156 3354.25,474.6406 3354.3906,474.7656 C3354.5313,474.9063 3354.7656,475.0156 3354.9844,475.0156 C3355.25,475.0156 3355.5156,474.875 3355.6875,474.6563 C3355.7969,474.5 3355.8281,474.3125 3355.8281,473.8906 L3355.8281,472.4688 C3355.8281,472.0313 3355.8125,471.9063 3355.7188,471.75 C3355.5625,471.4844 3355.2813,471.3438 3354.9844,471.3438 C3354.6875,471.3438 3354.4844,471.4375 3354.2656,471.75 L3354.0938,471.6719 Z " fill="#000000"/><text fill="#000000" font-family="sans-serif" font-size="14" lengthAdjust="spacing" textLength="101" x="3372.25" y="480.8467">AnalysisLETKF</text><line style="stroke:#181818;stroke-width:0.5;" x1="3224" x2="3589" y1="492" y2="492"/><line style="stroke:#181818;stroke-width:0.5;" x1="3224" x2="3589" y1="500" y2="500"/><ellipse cx="3234" cy="513.6484" fill="#84BE84" rx="3" ry="3" style="stroke:#038048;stroke-width:1.0;"/><text fill="#000000" font-family="sans-serif" font-size="14" lengthAdjust="spacing" textLength="121" x="3243" y="516.9951">__init__(model, r)</text><ellipse cx="3234" cy="529.9453" fill="#84BE84" rx="3" ry="3" style="stroke:#038048;stroke-width:1.0;"/><text fill="#000000" font-family="sans-serif" font-size="14" lengthAdjust="spacing" textLength="341" x="3243" y="533.292">perform_assimilation(background, observation)</text><ellipse cx="3234" cy="546.2422" fill="#84BE84" rx="3" ry="3" style="stroke:#038048;stroke-width:1.0;"/><text fill="#000000" font-family="sans-serif" font-size="14" lengthAdjust="spacing" textLength="142" x="3243" y="549.5889">get_analysis_state()</text><ellipse cx="3234" cy="562.5391" fill="#84BE84" rx="3" ry="3" style="stroke:#038048;stroke-width:1.0;"/><text fill="#000000" font-family="sans-serif" font-size="14" lengthAdjust="spacing" textLength="113" x="3243" y="565.8857">get_ensemble()</text><ellipse cx="3234" cy="578.8359" fill="#84BE84" rx="3" ry="3" style="stroke:#038048;stroke-width:1.0;"/><text fill="#000000" font-family="sans-serif" font-size="14" lengthAdjust="spacing" textLength="162" x="3243" y="582.1826">get_error_covariance()</text><ellipse cx="3234" cy="595.1328" fill="#84BE84" rx="3" ry="3" style="stroke:#038048;stroke-width:1.0;"/><text fill="#000000" font-family="sans-serif" font-size="14" lengthAdjust="spacing" textLength="246" x="3243" y="598.4795">inflate_ensemble(inflation_factor)</text></g><!--class Lorenz96--><g id="elem_Lorenz96"><rect codeLine="104" fill="#F1F1F1" height="194.6719" id="Lorenz96" rx="2.5" ry="2.5" style="stroke:#181818;stroke-width:0.5;" width="423" x="3567" y="675"/><ellipse cx="3740.75" cy="691" fill="#ADD1B2" rx="11" ry="11" style="stroke:#181818;stroke-width:1.0;"/><path d="M3743.0938,686.6719 C3742.1563,686.2344 3741.5625,686.0938 3740.6875,686.0938 C3738.0625,686.0938 3736.0625,688.1719 3736.0625,690.8906 L3736.0625,692.0156 C3736.0625,694.5938 3738.1719,696.4844 3741.0625,696.4844 C3742.2813,696.4844 3743.4375,696.1875 3744.1875,695.6406 C3744.7656,695.2344 3745.0938,694.7813 3745.0938,694.3906 C3745.0938,693.9375 3744.7031,693.5469 3744.2344,693.5469 C3744.0156,693.5469 3743.8125,693.625 3743.625,693.8125 C3743.1719,694.2969 3743.1719,694.2969 3742.9844,694.3906 C3742.5625,694.6563 3741.875,694.7813 3741.1094,694.7813 C3739.0625,694.7813 3737.7656,693.6875 3737.7656,691.9844 L3737.7656,690.8906 C3737.7656,689.1094 3739.0156,687.7969 3740.75,687.7969 C3741.3281,687.7969 3741.9375,687.9531 3742.4063,688.2031 C3742.8906,688.4844 3743.0625,688.7031 3743.1563,689.1094 C3743.2188,689.5156 3743.25,689.6406 3743.3906,689.7656 C3743.5313,689.9063 3743.7656,690.0156 3743.9844,690.0156 C3744.25,690.0156 3744.5156,689.875 3744.6875,689.6563 C3744.7969,689.5 3744.8281,689.3125 3744.8281,688.8906 L3744.8281,687.4688 C3744.8281,687.0313 3744.8125,686.9063 3744.7188,686.75 C3744.5625,686.4844 3744.2813,686.3438 3743.9844,686.3438 C3743.6875,686.3438 3743.4844,686.4375 3743.2656,686.75 L3743.0938,686.6719 Z " fill="#000000"/><text fill="#000000" font-family="sans-serif" font-size="14" lengthAdjust="spacing" textLength="67" x="3761.25" y="695.8467">Lorenz96</text><line style="stroke:#181818;stroke-width:0.5;" x1="3568" x2="3989" y1="707" y2="707"/><line style="stroke:#181818;stroke-width:0.5;" x1="3568" x2="3989" y1="715" y2="715"/><ellipse cx="3578" cy="728.6484" fill="#84BE84" rx="3" ry="3" style="stroke:#038048;stroke-width:1.0;"/><text fill="#000000" font-family="sans-serif" font-size="14" lengthAdjust="spacing" textLength="134" x="3587" y="731.9951">__init__(n=40, F=8)</text><ellipse cx="3578" cy="744.9453" fill="#84BE84" rx="3" ry="3" style="stroke:#038048;stroke-width:1.0;"/><text fill="#000000" font-family="sans-serif" font-size="14" lengthAdjust="spacing" textLength="96" x="3587" y="748.292">lorenz96(x, t)</text><ellipse cx="3578" cy="761.2422" fill="#84BE84" rx="3" ry="3" style="stroke:#038048;stroke-width:1.0;"/><text fill="#000000" font-family="sans-serif" font-size="14" lengthAdjust="spacing" textLength="191" x="3587" y="764.5889">get_number_of_variables()</text><ellipse cx="3578" cy="777.5391" fill="#84BE84" rx="3" ry="3" style="stroke:#038048;stroke-width:1.0;"/><text fill="#000000" font-family="sans-serif" font-size="14" lengthAdjust="spacing" textLength="397" x="3587" y="780.8857">get_initial_condition(seed=10, T=np.arange(0, 10, 0.1))</text><ellipse cx="3578" cy="793.8359" fill="#84BE84" rx="3" ry="3" style="stroke:#038048;stroke-width:1.0;"/><text fill="#000000" font-family="sans-serif" font-size="14" lengthAdjust="spacing" textLength="280" x="3587" y="797.1826">propagate(x0, T, just_final_state=True)</text><ellipse cx="3578" cy="810.1328" fill="#84BE84" rx="3" ry="3" style="stroke:#038048;stroke-width:1.0;"/><text fill="#000000" font-family="sans-serif" font-size="14" lengthAdjust="spacing" textLength="221" x="3587" y="813.4795">create_decorrelation_matrix(r)</text><ellipse cx="3578" cy="826.4297" fill="#84BE84" rx="3" ry="3" style="stroke:#038048;stroke-width:1.0;"/><text fill="#000000" font-family="sans-serif" font-size="14" lengthAdjust="spacing" textLength="193" x="3587" y="829.7764">get_decorrelation_matrix()</text><ellipse cx="3578" cy="842.7266" fill="#84BE84" rx="3" ry="3" style="stroke:#038048;stroke-width:1.0;"/><text fill="#000000" font-family="sans-serif" font-size="14" lengthAdjust="spacing" textLength="88" x="3587" y="846.0732">get_ngb(i, r)</text><ellipse cx="3578" cy="859.0234" fill="#84BE84" rx="3" ry="3" style="stroke:#038048;stroke-width:1.0;"/><text fill="#000000" font-family="sans-serif" font-size="14" lengthAdjust="spacing" textLength="85" x="3587" y="862.3701">get_pre(i, r)</text></g><!--class Model--><g id="elem_Model"><rect codeLine="116" fill="#F1F1F1" height="129.4844" id="Model" rx="2.5" ry="2.5" style="stroke:#181818;stroke-width:0.5;" width="306" x="3625.5" y="468.5"/><ellipse cx="3752.75" cy="484.5" fill="#A9DCDF" rx="11" ry="11" style="stroke:#181818;stroke-width:1.0;"/><path d="M3754.8281,486.3125 L3755.2188,487.2969 L3754.8281,487.2969 C3754.375,487.2969 3754.2656,487.3125 3754.1094,487.4219 C3753.8594,487.5781 3753.7031,487.8594 3753.7031,488.1563 C3753.7031,488.4219 3753.8438,488.6719 3754.0625,488.8281 C3754.2031,488.9531 3754.4063,489 3754.8281,489 L3757.1875,489 C3757.5469,489 3757.7656,488.9688 3757.9063,488.875 C3758.1563,488.7344 3758.3125,488.4375 3758.3125,488.1563 C3758.3125,487.875 3758.1719,487.625 3757.9531,487.4688 C3757.7813,487.3281 3757.625,487.2969 3757.1563,487.2969 L3753.7656,479.0938 L3750.0938,479.0938 C3749.6406,479.0938 3749.5156,479.1094 3749.3594,479.2031 C3749.1094,479.375 3748.9531,479.6563 3748.9531,479.9375 C3748.9531,480.2188 3749.0938,480.4688 3749.3125,480.6406 C3749.4844,480.75 3749.6563,480.7813 3750.0938,480.7813 L3751.1719,480.7813 L3748.5313,487.2969 C3748.1094,487.2969 3747.9531,487.3125 3747.7969,487.4219 C3747.5469,487.5781 3747.3906,487.8594 3747.3906,488.1563 C3747.3906,488.7188 3747.7656,489 3748.5156,489 L3750.7813,489 C3751.1406,489 3751.3594,488.9688 3751.4844,488.875 C3751.75,488.7344 3751.8906,488.4375 3751.8906,488.1563 C3751.8906,487.875 3751.7656,487.625 3751.5469,487.4531 C3751.375,487.3281 3751.2344,487.2969 3750.7813,487.2969 L3750.3906,487.2969 L3750.7813,486.3125 L3754.8281,486.3125 Z M3754.125,484.6094 L3751.4531,484.6094 L3752.7969,481.3438 L3754.125,484.6094 Z " fill="#000000"/><text fill="#000000" font-family="sans-serif" font-size="14" font-style="italic" lengthAdjust="spacing" textLength="43" x="3773.25" y="489.3467">Model</text><line style="stroke:#181818;stroke-width:0.5;" x1="3626.5" x2="3930.5" y1="500.5" y2="500.5"/><line style="stroke:#181818;stroke-width:0.5;" x1="3626.5" x2="3930.5" y1="508.5" y2="508.5"/><ellipse cx="3636.5" cy="522.1484" fill="#84BE84" rx="3" ry="3" style="stroke:#038048;stroke-width:1.0;"/><text fill="#000000" font-family="sans-serif" font-size="14" lengthAdjust="spacing" textLength="191" x="3645.5" y="525.4951">get_number_of_variables()</text><ellipse cx="3636.5" cy="538.4453" fill="#84BE84" rx="3" ry="3" style="stroke:#038048;stroke-width:1.0;"/><text fill="#000000" font-family="sans-serif" font-size="14" lengthAdjust="spacing" textLength="157" x="3645.5" y="541.792">get_initial_condition()</text><ellipse cx="3636.5" cy="554.7422" fill="#84BE84" rx="3" ry="3" style="stroke:#038048;stroke-width:1.0;"/><text fill="#000000" font-family="sans-serif" font-size="14" lengthAdjust="spacing" textLength="280" x="3645.5" y="558.0889">propagate(x0, T, just_final_state=True)</text><ellipse cx="3636.5" cy="571.0391" fill="#84BE84" rx="3" ry="3" style="stroke:#038048;stroke-width:1.0;"/><text fill="#000000" font-family="sans-serif" font-size="14" lengthAdjust="spacing" textLength="221" x="3645.5" y="574.3857">create_decorrelation_matrix(r)</text><ellipse cx="3636.5" cy="587.3359" fill="#84BE84" rx="3" ry="3" style="stroke:#038048;stroke-width:1.0;"/><text fill="#000000" font-family="sans-serif" font-size="14" lengthAdjust="spacing" textLength="193" x="3645.5" y="590.6826">get_decorrelation_matrix()</text></g><!--class Observation--><g id="elem_Observation"><rect codeLine="126" fill="#F1F1F1" height="162.0781" id="Observation" rx="2.5" ry="2.5" style="stroke:#181818;stroke-width:0.5;" width="470" x="3838.5" y="205"/><ellipse cx="4025.25" cy="221" fill="#ADD1B2" rx="11" ry="11" style="stroke:#181818;stroke-width:1.0;"/><path d="M4027.5938,216.6719 C4026.6563,216.2344 4026.0625,216.0938 4025.1875,216.0938 C4022.5625,216.0938 4020.5625,218.1719 4020.5625,220.8906 L4020.5625,222.0156 C4020.5625,224.5938 4022.6719,226.4844 4025.5625,226.4844 C4026.7813,226.4844 4027.9375,226.1875 4028.6875,225.6406 C4029.2656,225.2344 4029.5938,224.7813 4029.5938,224.3906 C4029.5938,223.9375 4029.2031,223.5469 4028.7344,223.5469 C4028.5156,223.5469 4028.3125,223.625 4028.125,223.8125 C4027.6719,224.2969 4027.6719,224.2969 4027.4844,224.3906 C4027.0625,224.6563 4026.375,224.7813 4025.6094,224.7813 C4023.5625,224.7813 4022.2656,223.6875 4022.2656,221.9844 L4022.2656,220.8906 C4022.2656,219.1094 4023.5156,217.7969 4025.25,217.7969 C4025.8281,217.7969 4026.4375,217.9531 4026.9063,218.2031 C4027.3906,218.4844 4027.5625,218.7031 4027.6563,219.1094 C4027.7188,219.5156 4027.75,219.6406 4027.8906,219.7656 C4028.0313,219.9063 4028.2656,220.0156 4028.4844,220.0156 C4028.75,220.0156 4029.0156,219.875 4029.1875,219.6563 C4029.2969,219.5 4029.3281,219.3125 4029.3281,218.8906 L4029.3281,217.4688 C4029.3281,217.0313 4029.3125,216.9063 4029.2188,216.75 C4029.0625,216.4844 4028.7813,216.3438 4028.4844,216.3438 C4028.1875,216.3438 4027.9844,216.4375 4027.7656,216.75 L4027.5938,216.6719 Z " fill="#000000"/><text fill="#000000" font-family="sans-serif" font-size="14" lengthAdjust="spacing" textLength="88" x="4045.75" y="225.8467">Observation</text><line style="stroke:#181818;stroke-width:0.5;" x1="3839.5" x2="4307.5" y1="237" y2="237"/><line style="stroke:#181818;stroke-width:0.5;" x1="3839.5" x2="4307.5" y1="245" y2="245"/><ellipse cx="3849.5" cy="258.6484" fill="#84BE84" rx="3" ry="3" style="stroke:#038048;stroke-width:1.0;"/><text fill="#000000" font-family="sans-serif" font-size="14" lengthAdjust="spacing" textLength="444" x="3858.5" y="261.9951">__init__(m, std_obs=0.01, obs_operator_fixed=False, H=None)</text><ellipse cx="3849.5" cy="274.9453" fill="#84BE84" rx="3" ry="3" style="stroke:#038048;stroke-width:1.0;"/><text fill="#000000" font-family="sans-serif" font-size="14" lengthAdjust="spacing" textLength="206" x="3858.5" y="278.292">set_observation_operator(n)</text><ellipse cx="3849.5" cy="291.2422" fill="#84BE84" rx="3" ry="3" style="stroke:#038048;stroke-width:1.0;"/><text fill="#000000" font-family="sans-serif" font-size="14" lengthAdjust="spacing" textLength="177" x="3858.5" y="294.5889">generate_observation(x)</text><ellipse cx="3849.5" cy="307.5391" fill="#84BE84" rx="3" ry="3" style="stroke:#038048;stroke-width:1.0;"/><text fill="#000000" font-family="sans-serif" font-size="14" lengthAdjust="spacing" textLength="128" x="3858.5" y="310.8857">get_observation()</text><ellipse cx="3849.5" cy="323.8359" fill="#84BE84" rx="3" ry="3" style="stroke:#038048;stroke-width:1.0;"/><text fill="#000000" font-family="sans-serif" font-size="14" lengthAdjust="spacing" textLength="199" x="3858.5" y="327.1826">get_observation_operator()</text><ellipse cx="3849.5" cy="340.1328" fill="#84BE84" rx="3" ry="3" style="stroke:#038048;stroke-width:1.0;"/><text fill="#000000" font-family="sans-serif" font-size="14" lengthAdjust="spacing" textLength="201" x="3858.5" y="343.4795">get_data_error_covariance()</text><ellipse cx="3849.5" cy="356.4297" fill="#84BE84" rx="3" ry="3" style="stroke:#038048;stroke-width:1.0;"/><text fill="#000000" font-family="sans-serif" font-size="14" lengthAdjust="spacing" textLength="235" x="3858.5" y="359.7764">get_precision_error_covariance()</text></g><!--class Simulation--><g id="elem_Simulation"><rect codeLine="136" fill="#F1F1F1" height="113.1875" id="Simulation" rx="2.5" ry="2.5" style="stroke:#181818;stroke-width:0.5;" width="804" x="3312.5" y="7"/><ellipse cx="3672.25" cy="23" fill="#ADD1B2" rx="11" ry="11" style="stroke:#181818;stroke-width:1.0;"/><path d="M3674.5938,18.6719 C3673.6563,18.2344 3673.0625,18.0938 3672.1875,18.0938 C3669.5625,18.0938 3667.5625,20.1719 3667.5625,22.8906 L3667.5625,24.0156 C3667.5625,26.5938 3669.6719,28.4844 3672.5625,28.4844 C3673.7813,28.4844 3674.9375,28.1875 3675.6875,27.6406 C3676.2656,27.2344 3676.5938,26.7813 3676.5938,26.3906 C3676.5938,25.9375 3676.2031,25.5469 3675.7344,25.5469 C3675.5156,25.5469 3675.3125,25.625 3675.125,25.8125 C3674.6719,26.2969 3674.6719,26.2969 3674.4844,26.3906 C3674.0625,26.6563 3673.375,26.7813 3672.6094,26.7813 C3670.5625,26.7813 3669.2656,25.6875 3669.2656,23.9844 L3669.2656,22.8906 C3669.2656,21.1094 3670.5156,19.7969 3672.25,19.7969 C3672.8281,19.7969 3673.4375,19.9531 3673.9063,20.2031 C3674.3906,20.4844 3674.5625,20.7031 3674.6563,21.1094 C3674.7188,21.5156 3674.75,21.6406 3674.8906,21.7656 C3675.0313,21.9063 3675.2656,22.0156 3675.4844,22.0156 C3675.75,22.0156 3676.0156,21.875 3676.1875,21.6563 C3676.2969,21.5 3676.3281,21.3125 3676.3281,20.8906 L3676.3281,19.4688 C3676.3281,19.0313 3676.3125,18.9063 3676.2188,18.75 C3676.0625,18.4844 3675.7813,18.3438 3675.4844,18.3438 C3675.1875,18.3438 3674.9844,18.4375 3674.7656,18.75 L3674.5938,18.6719 Z " fill="#000000"/><text fill="#000000" font-family="sans-serif" font-size="14" lengthAdjust="spacing" textLength="76" x="3692.75" y="27.8467">Simulation</text><line style="stroke:#181818;stroke-width:0.5;" x1="3313.5" x2="4115.5" y1="39" y2="39"/><line style="stroke:#181818;stroke-width:0.5;" x1="3313.5" x2="4115.5" y1="47" y2="47"/><ellipse cx="3323.5" cy="60.6484" fill="#84BE84" rx="3" ry="3" style="stroke:#038048;stroke-width:1.0;"/><text fill="#000000" font-family="sans-serif" font-size="14" lengthAdjust="spacing" textLength="778" x="3332.5" y="63.9951">__init__(model, background, analysis, observation, params={'obs_freq': 0.1, 'obs_times': 15, 'inf_fact': 1.04})</text><ellipse cx="3323.5" cy="76.9453" fill="#84BE84" rx="3" ry="3" style="stroke:#038048;stroke-width:1.0;"/><text fill="#000000" font-family="sans-serif" font-size="14" lengthAdjust="spacing" textLength="145" x="3332.5" y="80.292">relative_error(xr, xs)</text><ellipse cx="3323.5" cy="93.2422" fill="#84BE84" rx="3" ry="3" style="stroke:#038048;stroke-width:1.0;"/><text fill="#000000" font-family="sans-serif" font-size="14" lengthAdjust="spacing" textLength="33" x="3332.5" y="96.5889">run()</text><ellipse cx="3323.5" cy="109.5391" fill="#84BE84" rx="3" ry="3" style="stroke:#038048;stroke-width:1.0;"/><text fill="#000000" font-family="sans-serif" font-size="14" lengthAdjust="spacing" textLength="85" x="3332.5" y="112.8857">get_errors()</text></g><!--reverse link Model to Lorenz96--><g id="link_Model_Lorenz96"><path codeLine="124" d="M3778.5,617.766 C3778.5,636.142 3778.5,655.746 3778.5,674.589 " fill="none" id="Model-backto-Lorenz96" style="stroke:#181818;stroke-width:1.0;"/><polygon fill="none" points="3771.5,617.646,3778.5,597.646,3785.5,617.646,3771.5,617.646" style="stroke:#181818;stroke-width:1.0;"/></g><!--reverse link Analysis to AnalysisEnKF--><g id="link_Analysis_AnalysisEnKF"><path codeLine="143" d="M1795.51,289.972 C1487.19,298.47 885.979,330.719 391.5,452 C382.016,454.326 372.385,457.005 362.735,459.941 " fill="none" id="Analysis-backto-AnalysisEnKF" style="stroke:#181818;stroke-width:1.0;"/><polygon fill="none" points="1795.67,282.966,1815.85,289.435,1796.04,296.961,1795.67,282.966" style="stroke:#181818;stroke-width:1.0;"/></g><!--reverse link Analysis to AnalysisEnKFBLoc--><g id="link_Analysis_AnalysisEnKFBLoc"><path codeLine="144" d="M1795.98,299.719 C1553.83,318.302 1138.87,361.091 793.5,452 C784.42,454.39 775.196,457.076 765.944,459.978 " fill="none" id="Analysis-backto-AnalysisEnKFBLoc" style="stroke:#181818;stroke-width:1.0;"/><polygon fill="none" points="1795.51,292.734,1815.98,298.208,1796.57,306.694,1795.51,292.734" style="stroke:#181818;stroke-width:1.0;"/></g><!--reverse link Analysis to AnalysisEnKFCholesky--><g id="link_Analysis_AnalysisEnKFCholesky"><path codeLine="145" d="M1795.72,318.585 C1631.71,346.444 1396.28,391.955 1195.5,452 C1187.22,454.475 1178.81,457.151 1170.36,459.972 " fill="none" id="Analysis-backto-AnalysisEnKFCholesky" style="stroke:#181818;stroke-width:1.0;"/><polygon fill="none" points="1794.73,311.654,1815.62,315.233,1797.06,325.459,1794.73,311.654" style="stroke:#181818;stroke-width:1.0;"/></g><!--reverse link Analysis to AnalysisEnKFModifiedCholesky--><g id="link_Analysis_AnalysisEnKFModifiedCholesky"><path codeLine="146" d="M1824.35,358.162 C1747.68,389.316 1657.69,425.879 1580.07,457.414 " fill="none" id="Analysis-backto-AnalysisEnKFModifiedCholesky" style="stroke:#181818;stroke-width:1.0;"/><polygon fill="none" points="1821.87,351.615,1843.04,350.572,1827.14,364.585,1821.87,351.615" style="stroke:#181818;stroke-width:1.0;"/></g><!--reverse link Analysis to AnalysisEnKFNaive--><g id="link_Analysis_AnalysisEnKFNaive"><path codeLine="147" d="M1934.27,366.507 C1909.61,396.572 1881.7,430.593 1857.62,459.936 " fill="none" id="Analysis-backto-AnalysisEnKFNaive" style="stroke:#181818;stroke-width:1.0;"/><polygon fill="none" points="1929.12,361.754,1947.21,350.731,1939.94,370.633,1929.12,361.754" style="stroke:#181818;stroke-width:1.0;"/></g><!--reverse link Analysis to AnalysisEnSRF--><g id="link_Analysis_AnalysisEnSRF"><path codeLine="148" d="M2064.73,366.507 C2089.39,396.572 2117.3,430.593 2141.38,459.936 " fill="none" id="Analysis-backto-AnalysisEnSRF" style="stroke:#181818;stroke-width:1.0;"/><polygon fill="none" points="2059.06,370.633,2051.79,350.731,2069.88,361.754,2059.06,370.633" style="stroke:#181818;stroke-width:1.0;"/></g><!--reverse link Analysis to AnalysisETKF--><g id="link_Analysis_AnalysisETKF"><path codeLine="149" d="M2174.62,358.151 C2253.37,390.149 2346.17,427.854 2425.19,459.957 " fill="none" id="Analysis-backto-AnalysisETKF" style="stroke:#181818;stroke-width:1.0;"/><polygon fill="none" points="2171.86,364.585,2155.96,350.572,2177.13,351.615,2171.86,364.585" style="stroke:#181818;stroke-width:1.0;"/></g><!--reverse link Analysis to AnalysisLEnKF--><g id="link_Analysis_AnalysisLEnKF"><path codeLine="150" d="M2203.28,318.585 C2367.29,346.444 2602.72,391.955 2803.5,452 C2811.78,454.475 2820.19,457.151 2828.64,459.972 " fill="none" id="Analysis-backto-AnalysisLEnKF" style="stroke:#181818;stroke-width:1.0;"/><polygon fill="none" points="2201.94,325.459,2183.38,315.233,2204.27,311.654,2201.94,325.459" style="stroke:#181818;stroke-width:1.0;"/></g><!--reverse link Analysis to AnalysisLETKF--><g id="link_Analysis_AnalysisLETKF"><path codeLine="151" d="M2203.02,299.719 C2445.17,318.302 2860.13,361.091 3205.5,452 C3214.58,454.39 3223.8,457.076 3233.06,459.978 " fill="none" id="Analysis-backto-AnalysisLETKF" style="stroke:#181818;stroke-width:1.0;"/><polygon fill="none" points="2202.43,306.694,2183.02,298.208,2203.49,292.734,2202.43,306.694" style="stroke:#181818;stroke-width:1.0;"/></g><!--link Background to Model--><g id="link_Background_Model"><path codeLine="153" d="M3615.84,375.104 C3647.84,405.971 3683.13,440.009 3712.64,468.469 " fill="none" id="Background-Model" style="stroke:#181818;stroke-width:1.0;"/><text fill="#000000" font-family="sans-serif" font-size="13" lengthAdjust="spacing" textLength="23" x="3660.5" y="418.0669">has</text><text fill="#000000" font-family="sans-serif" font-size="13" lengthAdjust="spacing" textLength="8" x="3615.3458" y="395.4624">1</text><text fill="#000000" font-family="sans-serif" font-size="13" lengthAdjust="spacing" textLength="8" x="3696.9991" y="457.6383">1</text></g><!--link Simulation to Model--><g id="link_Simulation_Model"><path codeLine="154" d="M3722.16,120.427 C3734.12,207.799 3757.17,376.174 3769.76,468.169 " fill="none" id="Simulation-Model" style="stroke:#181818;stroke-width:1.0;"/><text fill="#000000" font-family="sans-serif" font-size="13" lengthAdjust="spacing" textLength="23" x="3758.5" y="290.5669">has</text><text fill="#000000" font-family="sans-serif" font-size="13" lengthAdjust="spacing" textLength="8" x="3714.6061" y="140.3426">1</text><text fill="#000000" font-family="sans-serif" font-size="13" lengthAdjust="spacing" textLength="8" x="3760.3666" y="457.3055">1</text></g><!--link Simulation to Background--><g id="link_Simulation_Background"><path codeLine="155" d="M3666.55,120.141 C3646.55,143.361 3622.81,170.904 3600.53,196.763 " fill="none" id="Simulation-Background" style="stroke:#181818;stroke-width:1.0;"/><text fill="#000000" font-family="sans-serif" font-size="13" lengthAdjust="spacing" textLength="23" x="3638.5" y="163.0669">has</text><text fill="#000000" font-family="sans-serif" font-size="13" lengthAdjust="spacing" textLength="8" x="3651.8939" y="140.4225">1</text><text fill="#000000" font-family="sans-serif" font-size="13" lengthAdjust="spacing" textLength="8" x="3598.495" y="185.8088">1</text></g><!--link Simulation to Analysis--><g id="link_Simulation_Analysis"><path codeLine="156" d="M3312.41,116.197 C2955.75,162.054 2451,226.949 2183.14,261.389 " fill="none" id="Simulation-Analysis" style="stroke:#181818;stroke-width:1.0;"/><text fill="#000000" font-family="sans-serif" font-size="13" lengthAdjust="spacing" textLength="23" x="3012.5" y="163.0669">has</text><text fill="#000000" font-family="sans-serif" font-size="13" lengthAdjust="spacing" textLength="8" x="3296.1613" y="114.1814">1</text><text fill="#000000" font-family="sans-serif" font-size="13" lengthAdjust="spacing" textLength="8" x="2191.0561" y="257.0938">1</text></g><!--link Simulation to Observation--><g id="link_Simulation_Observation"><path codeLine="157" d="M3805.09,120.141 C3846.84,145.785 3897.18,176.702 3942.92,204.8 " fill="none" id="Simulation-Observation" style="stroke:#181818;stroke-width:1.0;"/><text fill="#000000" font-family="sans-serif" font-size="13" lengthAdjust="spacing" textLength="23" x="3874.5" y="163.0669">has</text><text fill="#000000" font-family="sans-serif" font-size="13" lengthAdjust="spacing" textLength="8" x="3808.1843" y="140.4225">1</text><text fill="#000000" font-family="sans-serif" font-size="13" lengthAdjust="spacing" textLength="8" x="3922.934" y="193.9695">1</text></g><!--SRC=[rLVVRzCm47xFNs7jPQd8gbOQ22Roi04J4jsGM1_sPZd9jJDBx68dLRUn_vspdIPkQ2E615AUAjzTVDztltmz9kU9BXLBIvBcJEk0xHp9kM3vW-QQF0M4l5g1MaXLKDJmWkUiv5A42KllbqfM8ek8J3IejPMFp0TBA2chhw2wP2M4ZHo4XYB9VObIKj5KhfdYJAIrXei5UeBMtWdG1LqWKAb6mNCGEBWN3HO7c58kU4bfMCWCyeXixw2QFqBZrzXmbliUd03vbfLAhBE8bBnmts0C86MwH4Qm2cyJJ-KJiqxw-BPCQS5AnJUjgWrgDsm5NWAAPh3c5fSETSfoy8AmpTadyUMo4uRH8BBe4xYOoNH_BjNmo7ouapde-uV1P-LAPdp18Jj0Q2T3nliA6uPhSsrTw1zlKGtBAaSuZxiEXnQBQyRNy4yp-WV8Ni9r3ukRRmEV5FE1ZxhPdc4zp3atsvEBeJ2fgSpmVHUFxzvqM8ZuT1AHo_YjlJ6lZS8DFl-DTr7PrrakgFMFddJusvwHIf5nIri3PF4KRvt7OZLcYeabX7WqeibuEd81KtB5beRsnbX6v7k5kyU2OqXSEEAvgjpwaIemB3D8fL9G4wn7RZibzgfR2iiav9tXNGimH9tzyCfariNfB-Z_Lte8tg5z__FafCdnDkTVswBh5cz4T9bHhCfuCfvCRNrIYLNCi6mGvmPJUCbo3H7v75zBuQ1g1E8LSlD1kArfOSxWsuIRXe8ltITihsjPiv8TAFxT5xZlHRZXHPNl3OBhOBzDjosvqx0HMM4L5pf-EZPXMYZuSNncIZaYLc0MPOsIwMiKO0_QxZFdyUJqsO9rYLk3mnbkL4GsscagqMbpxR0tVr9iPlstkKTb5iiUzNQpwJ7fBa4zfdP7EAZ7r_UGRdwGmwo7dvt1GU3z6pgQ7X4qC3-k2Sx87TE1b-yNMNWtzvarwFgC_CwpThy0]--></g></svg>